<svg width="1920" height="1080" viewBox="0 0 1920 1080" fill="none" xmlns="http://www.w3.org/2000/svg" xmlns:xlink="http://www.w3.org/1999/xlink">
<rect width="1920" height="1080" fill="white"/>

<rect x="80" y="966" width="149" height="74" fill="url(#pattern0)"/>
<rect x="541.5" y="381.5" width="399" height="239" rx="7.5" fill="#FFFCCC"/>
<path d="M582.957 515.028C579.73 515.028 577.09 513.987 575.037 511.904C572.984 509.792 571.957 507.108 571.957 503.852C571.957 500.625 572.984 497.971 575.037 495.888C577.09 493.776 579.73 492.72 582.957 492.72C586.506 492.72 589.22 493.981 591.097 496.504L588.061 499.32C586.888 497.648 585.26 496.812 583.177 496.812C581.241 496.812 579.686 497.472 578.513 498.792C577.34 500.083 576.753 501.769 576.753 503.852C576.753 505.935 577.34 507.636 578.513 508.956C579.686 510.276 581.241 510.936 583.177 510.936C585.201 510.936 586.829 510.1 588.061 508.428L591.097 511.244C589.22 513.767 586.506 515.028 582.957 515.028ZM604.74 510.936C606.647 510.936 608.143 510.247 609.228 508.868C610.343 507.489 610.9 505.788 610.9 503.764C610.9 501.828 610.343 500.185 609.228 498.836C608.143 497.487 606.647 496.812 604.74 496.812C602.863 496.812 601.367 497.487 600.252 498.836C599.167 500.185 598.624 501.828 598.624 503.764C598.624 505.788 599.167 507.489 600.252 508.868C601.367 510.247 602.863 510.936 604.74 510.936ZM612.704 511.772C610.739 513.943 608.084 515.028 604.74 515.028C601.396 515.028 598.742 513.899 596.776 511.64C594.84 509.352 593.872 506.433 593.872 502.884C593.872 497.809 594.738 494.025 596.468 491.532C598.228 489.039 600.927 487.572 604.564 487.132C606.764 486.809 608.275 486.501 609.096 486.208C609.947 485.915 610.372 485.563 610.372 485.152H614.904C614.904 488.232 611.883 490.109 605.84 490.784C603.464 491.048 601.631 491.708 600.34 492.764C599.079 493.791 598.287 495.023 597.964 496.46C598.815 495.287 599.915 494.377 601.264 493.732C602.643 493.057 604.095 492.72 605.62 492.72C608.554 492.72 610.959 493.805 612.836 495.976C614.714 498.147 615.652 500.757 615.652 503.808C615.652 506.947 614.67 509.601 612.704 511.772ZM630.135 515.028C626.849 515.028 624.209 513.957 622.215 511.816C620.22 509.645 619.223 506.991 619.223 503.852C619.223 500.713 620.22 498.073 622.215 495.932C624.209 493.791 626.849 492.72 630.135 492.72C633.449 492.72 636.104 493.791 638.099 495.932C640.093 498.073 641.091 500.713 641.091 503.852C641.091 507.02 640.093 509.675 638.099 511.816C636.104 513.957 633.449 515.028 630.135 515.028ZM630.135 510.936C632.041 510.936 633.537 510.261 634.623 508.912C635.737 507.533 636.295 505.847 636.295 503.852C636.295 501.887 635.737 500.229 634.623 498.88C633.537 497.501 632.041 496.812 630.135 496.812C628.257 496.812 626.761 497.501 625.647 498.88C624.561 500.229 624.019 501.887 624.019 503.852C624.019 505.847 624.561 507.533 625.647 508.912C626.761 510.261 628.257 510.936 630.135 510.936ZM657.205 515.028C654.389 515.028 652.116 513.869 650.385 511.552V522.596H645.765V493.248H650.385V496.152C652.087 493.864 654.36 492.72 657.205 492.72C659.992 492.72 662.251 493.717 663.981 495.712C665.741 497.707 666.621 500.42 666.621 503.852C666.621 507.284 665.741 510.012 663.981 512.036C662.251 514.031 659.992 515.028 657.205 515.028ZM655.841 510.936C657.66 510.936 659.112 510.276 660.197 508.956C661.283 507.636 661.825 505.935 661.825 503.852C661.825 501.769 661.283 500.083 660.197 498.792C659.112 497.472 657.66 496.812 655.841 496.812C654.785 496.812 653.744 497.091 652.717 497.648C651.691 498.205 650.913 498.88 650.385 499.672V508.076C650.913 508.868 651.691 509.543 652.717 510.1C653.744 510.657 654.785 510.936 655.841 510.936ZM691.091 514.5H685.283L678.771 505.744L675.823 508.78V514.5H671.203V493.248H675.823V503.5L685.195 493.248H690.915L682.071 502.884L691.091 514.5ZM711.963 514.5H707.343V512.212C705.7 514.089 703.412 515.028 700.479 515.028C698.543 515.028 696.827 514.412 695.331 513.18C693.835 511.919 693.087 510.188 693.087 507.988C693.087 505.729 693.82 504.013 695.287 502.84C696.783 501.667 698.514 501.08 700.479 501.08C703.5 501.08 705.788 501.989 707.343 503.808V500.64C707.343 499.408 706.888 498.44 705.979 497.736C705.07 497.032 703.867 496.68 702.371 496.68C699.995 496.68 697.898 497.575 696.079 499.364L694.187 496.152C696.592 493.864 699.57 492.72 703.119 492.72C705.73 492.72 707.856 493.336 709.499 494.568C711.142 495.8 711.963 497.751 711.963 500.42V514.5ZM702.283 511.86C704.6 511.86 706.287 511.127 707.343 509.66V506.448C706.287 504.981 704.6 504.248 702.283 504.248C700.963 504.248 699.878 504.6 699.027 505.304C698.176 506.008 697.751 506.932 697.751 508.076C697.751 509.22 698.176 510.144 699.027 510.848C699.878 511.523 700.963 511.86 702.283 511.86ZM727.054 519.912V510.672C728.051 510.437 728.799 509.865 729.298 508.956C729.826 508.017 730.251 506.228 730.574 503.588L731.85 493.248H748.262V510.452H750.594V519.912H745.974V514.5H731.674V519.912H727.054ZM735.942 497.296L735.194 504.116C734.9 506.932 733.962 509.044 732.378 510.452H743.642V497.296H735.942ZM767.414 514.5H754.39V493.248H767.106C769.072 493.248 770.612 493.761 771.726 494.788C772.841 495.815 773.398 497.12 773.398 498.704C773.398 499.936 773.061 500.977 772.386 501.828C771.712 502.679 770.861 503.251 769.834 503.544C770.978 503.808 771.932 504.439 772.694 505.436C773.457 506.404 773.838 507.504 773.838 508.736C773.838 510.437 773.266 511.831 772.122 512.916C771.008 513.972 769.438 514.5 767.414 514.5ZM766.446 510.452C767.268 510.452 767.913 510.247 768.382 509.836C768.852 509.396 769.086 508.809 769.086 508.076C769.086 507.401 768.852 506.829 768.382 506.36C767.913 505.891 767.268 505.656 766.446 505.656H759.01V510.452H766.446ZM766.314 501.608C767.048 501.608 767.62 501.417 768.03 501.036C768.47 500.625 768.69 500.112 768.69 499.496C768.69 498.821 768.47 498.293 768.03 497.912C767.62 497.501 767.048 497.296 766.314 497.296H759.01V501.608H766.314ZM784.014 514.5H779.57V493.248H784.19V507.548L793.958 493.248H798.578V514.5H793.958V499.804L784.014 514.5ZM807.658 514.5H801.85L810.87 502.884L802.026 493.248H807.746L815.358 501.564V493.248H819.978V501.564L827.59 493.248H833.31L824.466 502.884L833.486 514.5H827.678L821.166 505.744L819.978 506.976V514.5H815.358V506.976L814.17 505.744L807.658 514.5ZM856.65 514.5H850.842L844.33 505.744L841.382 508.78V514.5H836.762V493.248H841.382V503.5L850.754 493.248H856.474L847.63 502.884L856.65 514.5ZM869.299 515.028C866.014 515.028 863.374 513.957 861.379 511.816C859.384 509.645 858.387 506.991 858.387 503.852C858.387 500.713 859.384 498.073 861.379 495.932C863.374 493.791 866.014 492.72 869.299 492.72C872.614 492.72 875.268 493.791 877.263 495.932C879.258 498.073 880.255 500.713 880.255 503.852C880.255 507.02 879.258 509.675 877.263 511.816C875.268 513.957 872.614 515.028 869.299 515.028ZM869.299 510.936C871.206 510.936 872.702 510.261 873.787 508.912C874.902 507.533 875.459 505.847 875.459 503.852C875.459 501.887 874.902 500.229 873.787 498.88C872.702 497.501 871.206 496.812 869.299 496.812C867.422 496.812 865.926 497.501 864.811 498.88C863.726 500.229 863.183 501.887 863.183 503.852C863.183 505.847 863.726 507.533 864.811 508.912C865.926 510.261 867.422 510.936 869.299 510.936ZM908.734 514.5H904.114V499.716L897.778 514.5H895.93L889.55 499.716V514.5H884.93V493.248H890.958L896.854 506.976L902.662 493.248H908.734V514.5Z" fill="black"/>
<rect x="541.5" y="381.5" width="399" height="239" rx="7.5" stroke="#8D881F"/>
<rect x="981.5" y="381.5" width="399" height="239" rx="7.5" fill="#D4F5CC"/>
<path d="M1068.44 487.528C1065.21 487.528 1062.57 486.487 1060.52 484.404C1058.47 482.292 1057.44 479.608 1057.44 476.352C1057.44 473.125 1058.47 470.471 1060.52 468.388C1062.57 466.276 1065.21 465.22 1068.44 465.22C1071.99 465.22 1074.7 466.481 1076.58 469.004L1073.54 471.82C1072.37 470.148 1070.74 469.312 1068.66 469.312C1066.72 469.312 1065.17 469.972 1064 471.292C1062.82 472.583 1062.24 474.269 1062.24 476.352C1062.24 478.435 1062.82 480.136 1064 481.456C1065.17 482.776 1066.72 483.436 1068.66 483.436C1070.68 483.436 1072.31 482.6 1073.54 480.928L1076.58 483.744C1074.7 486.267 1071.99 487.528 1068.44 487.528ZM1089.12 487H1084.5V469.796H1078.43V465.748H1095.24V469.796H1089.12V487ZM1116.62 487H1112V484.712C1110.36 486.589 1108.07 487.528 1105.14 487.528C1103.2 487.528 1101.49 486.912 1099.99 485.68C1098.49 484.419 1097.75 482.688 1097.75 480.488C1097.75 478.229 1098.48 476.513 1099.95 475.34C1101.44 474.167 1103.17 473.58 1105.14 473.58C1108.16 473.58 1110.45 474.489 1112 476.308V473.14C1112 471.908 1111.55 470.94 1110.64 470.236C1109.73 469.532 1108.53 469.18 1107.03 469.18C1104.65 469.18 1102.56 470.075 1100.74 471.864L1098.85 468.652C1101.25 466.364 1104.23 465.22 1107.78 465.22C1110.39 465.22 1112.51 465.836 1114.16 467.068C1115.8 468.3 1116.62 470.251 1116.62 472.92V487ZM1106.94 484.36C1109.26 484.36 1110.95 483.627 1112 482.16V478.948C1110.95 477.481 1109.26 476.748 1106.94 476.748C1105.62 476.748 1104.54 477.1 1103.69 477.804C1102.83 478.508 1102.41 479.432 1102.41 480.576C1102.41 481.72 1102.83 482.644 1103.69 483.348C1104.54 484.023 1105.62 484.36 1106.94 484.36ZM1131.1 487H1126.48V469.796H1120.41V465.748H1137.22V469.796H1131.1V487ZM1145.45 487H1141V465.748H1145.62V480.048L1155.39 465.748H1160.01V487H1155.39V472.304L1145.45 487ZM1165.26 465.748H1169.88V471.468C1169.88 473.052 1170.28 474.167 1171.07 474.812C1171.89 475.457 1173.18 475.78 1174.94 475.78C1176.85 475.78 1178.4 475.516 1179.61 474.988V465.748H1184.23V487H1179.61V478.728C1178.08 479.491 1176.04 479.872 1173.49 479.872C1170.59 479.872 1168.49 479.315 1167.2 478.2C1165.91 477.085 1165.26 475.399 1165.26 473.14V465.748ZM1200.01 487.528C1196.79 487.528 1194.12 486.501 1192 484.448C1189.92 482.365 1188.88 479.667 1188.88 476.352C1188.88 473.243 1189.89 470.617 1191.92 468.476C1193.97 466.305 1196.55 465.22 1199.66 465.22C1202.8 465.22 1205.32 466.305 1207.23 468.476C1209.16 470.647 1210.13 473.419 1210.13 476.792V477.892H1193.72C1193.9 479.564 1194.59 480.957 1195.79 482.072C1196.99 483.187 1198.56 483.744 1200.5 483.744C1201.58 483.744 1202.67 483.539 1203.75 483.128C1204.87 482.717 1205.79 482.145 1206.52 481.412L1208.64 484.448C1206.5 486.501 1203.62 487.528 1200.01 487.528ZM1205.64 474.636C1205.59 473.169 1205.04 471.864 1204.02 470.72C1203.02 469.576 1201.57 469.004 1199.66 469.004C1197.84 469.004 1196.42 469.576 1195.39 470.72C1194.37 471.835 1193.79 473.14 1193.68 474.636H1205.64ZM1224.37 487.528C1221.15 487.528 1218.51 486.487 1216.45 484.404C1214.4 482.292 1213.37 479.608 1213.37 476.352C1213.37 473.125 1214.4 470.471 1216.45 468.388C1218.51 466.276 1221.15 465.22 1224.37 465.22C1227.92 465.22 1230.64 466.481 1232.51 469.004L1229.48 471.82C1228.3 470.148 1226.68 469.312 1224.59 469.312C1222.66 469.312 1221.1 469.972 1219.93 471.292C1218.76 472.583 1218.17 474.269 1218.17 476.352C1218.17 478.435 1218.76 480.136 1219.93 481.456C1221.1 482.776 1222.66 483.436 1224.59 483.436C1226.62 483.436 1228.25 482.6 1229.48 480.928L1232.51 483.744C1230.64 486.267 1227.92 487.528 1224.37 487.528ZM1256.45 487H1250.64L1244.13 478.244L1241.18 481.28V487H1236.56V465.748H1241.18V476L1250.56 465.748H1256.28L1247.43 475.384L1256.45 487ZM1264.17 487H1259.72V465.748H1264.34V480.048L1274.11 465.748H1278.73V487H1274.11V472.304L1264.17 487ZM1294.54 487.528C1291.32 487.528 1288.65 486.501 1286.54 484.448C1284.45 482.365 1283.41 479.667 1283.41 476.352C1283.41 473.243 1284.42 470.617 1286.45 468.476C1288.5 466.305 1291.08 465.22 1294.19 465.22C1297.33 465.22 1299.85 466.305 1301.76 468.476C1303.7 470.647 1304.66 473.419 1304.66 476.792V477.892H1288.25C1288.43 479.564 1289.12 480.957 1290.32 482.072C1291.52 483.187 1293.09 483.744 1295.03 483.744C1296.11 483.744 1297.2 483.539 1298.28 483.128C1299.4 482.717 1300.32 482.145 1301.06 481.412L1303.17 484.448C1301.03 486.501 1298.15 487.528 1294.54 487.528ZM1300.18 474.636C1300.12 473.169 1299.57 471.864 1298.55 470.72C1297.55 469.576 1296.1 469.004 1294.19 469.004C1292.37 469.004 1290.95 469.576 1289.92 470.72C1288.9 471.835 1288.33 473.14 1288.21 474.636H1300.18ZM1026.51 523.256C1027.97 521.232 1029.88 520.22 1032.23 520.22C1034.57 520.22 1036.48 521.379 1037.95 523.696V512.652H1042.57V523.652C1044 521.364 1045.91 520.22 1048.29 520.22C1050.63 520.22 1052.54 521.217 1054.01 523.212C1055.47 525.207 1056.21 527.92 1056.21 531.352C1056.21 534.784 1055.47 537.512 1054.01 539.536C1052.54 541.531 1050.63 542.528 1048.29 542.528C1045.94 542.528 1044.03 541.369 1042.57 539.052V550.096H1037.95V539.096C1036.51 541.384 1034.6 542.528 1032.23 542.528C1029.88 542.528 1027.97 541.531 1026.51 539.536C1025.04 537.541 1024.31 534.828 1024.31 531.396C1024.31 527.964 1025.04 525.251 1026.51 523.256ZM1033.68 524.312C1032.27 524.312 1031.13 524.972 1030.25 526.292C1029.4 527.612 1028.97 529.313 1028.97 531.396C1028.97 533.479 1029.4 535.18 1030.25 536.5C1031.13 537.791 1032.27 538.436 1033.68 538.436C1034.5 538.436 1035.31 538.157 1036.1 537.6C1036.92 537.043 1037.54 536.368 1037.95 535.576V527.172C1037.54 526.38 1036.92 525.705 1036.1 525.148C1035.31 524.591 1034.5 524.312 1033.68 524.312ZM1046.83 538.436C1048.24 538.436 1049.37 537.776 1050.22 536.456C1051.1 535.136 1051.54 533.435 1051.54 531.352C1051.54 529.269 1051.1 527.583 1050.22 526.292C1049.37 524.972 1048.24 524.312 1046.83 524.312C1046.01 524.312 1045.19 524.591 1044.37 525.148C1043.58 525.705 1042.98 526.38 1042.57 527.172V535.576C1042.98 536.368 1043.58 537.043 1044.37 537.6C1045.19 538.157 1046.01 538.436 1046.83 538.436ZM1079.17 542H1074.55V539.712C1072.91 541.589 1070.62 542.528 1067.69 542.528C1065.75 542.528 1064.04 541.912 1062.54 540.68C1061.05 539.419 1060.3 537.688 1060.3 535.488C1060.3 533.229 1061.03 531.513 1062.5 530.34C1063.99 529.167 1065.72 528.58 1067.69 528.58C1070.71 528.58 1073 529.489 1074.55 531.308V528.14C1074.55 526.908 1074.1 525.94 1073.19 525.236C1072.28 524.532 1071.08 524.18 1069.58 524.18C1067.21 524.18 1065.11 525.075 1063.29 526.864L1061.4 523.652C1063.8 521.364 1066.78 520.22 1070.33 520.22C1072.94 520.22 1075.07 520.836 1076.71 522.068C1078.35 523.3 1079.17 525.251 1079.17 527.92V542ZM1069.49 539.36C1071.81 539.36 1073.5 538.627 1074.55 537.16V533.948C1073.5 532.481 1071.81 531.748 1069.49 531.748C1068.17 531.748 1067.09 532.1 1066.24 532.804C1065.39 533.508 1064.96 534.432 1064.96 535.576C1064.96 536.72 1065.39 537.644 1066.24 538.348C1067.09 539.023 1068.17 539.36 1069.49 539.36ZM1089.61 542H1085.16V520.748H1089.78V535.048L1099.55 520.748H1104.17V542H1099.55V527.304L1089.61 542ZM1102.37 514.632C1100.46 517.213 1097.89 518.504 1094.67 518.504C1091.47 518.504 1088.89 517.213 1086.92 514.632L1089.04 512.872C1090.44 514.808 1092.32 515.776 1094.67 515.776C1097.01 515.776 1098.88 514.808 1100.26 512.872L1102.37 514.632ZM1107.97 542.528V538.744C1108.88 538.744 1109.6 538.157 1110.13 536.984C1110.69 535.811 1111.14 533.845 1111.49 531.088L1112.77 520.748H1129.18V542H1124.56V524.796H1116.86L1116.11 531.616C1115.7 535.429 1114.84 538.201 1113.52 539.932C1112.2 541.663 1110.35 542.528 1107.97 542.528ZM1135.18 520.748H1139.8V528.448H1147.32C1149.58 528.448 1151.31 529.093 1152.52 530.384C1153.75 531.675 1154.36 533.288 1154.36 535.224C1154.36 537.131 1153.73 538.744 1152.47 540.064C1151.24 541.355 1149.52 542 1147.32 542H1135.18V520.748ZM1146.75 532.496H1139.8V537.952H1146.75C1147.66 537.952 1148.36 537.703 1148.86 537.204C1149.39 536.705 1149.66 536.045 1149.66 535.224C1149.66 534.403 1149.39 533.743 1148.86 533.244C1148.36 532.745 1147.66 532.496 1146.75 532.496ZM1162.2 542H1157.58V520.748H1162.2V542ZM1198.49 542H1193.87V528.624C1193.87 527.069 1193.49 525.969 1192.72 525.324C1191.99 524.649 1190.93 524.312 1189.56 524.312C1188.47 524.312 1187.44 524.591 1186.48 525.148C1185.51 525.705 1184.72 526.38 1184.1 527.172V542H1179.48V512.652H1184.1V523.652C1184.89 522.713 1185.95 521.907 1187.27 521.232C1188.62 520.557 1190.07 520.22 1191.62 520.22C1196.2 520.22 1198.49 522.464 1198.49 526.952V542ZM1210.87 542.528C1209.08 542.528 1207.71 542.059 1206.78 541.12C1205.87 540.181 1205.41 538.832 1205.41 537.072V524.796H1201.89V520.748H1205.41V514.94H1210.03V520.748H1214.34V524.796H1210.03V535.928C1210.03 536.691 1210.21 537.307 1210.56 537.776C1210.91 538.216 1211.41 538.436 1212.06 538.436C1212.99 538.436 1213.68 538.187 1214.12 537.688L1215.22 541.164C1214.26 542.073 1212.8 542.528 1210.87 542.528ZM1249.21 542H1244.59V528.14C1244.59 525.588 1243.43 524.312 1241.11 524.312C1240.14 524.312 1239.2 524.591 1238.29 525.148C1237.39 525.705 1236.68 526.365 1236.18 527.128V542H1231.56V528.14C1231.56 525.588 1230.39 524.312 1228.04 524.312C1227.1 524.312 1226.18 524.591 1225.27 525.148C1224.39 525.705 1223.69 526.38 1223.16 527.172V542H1218.54V520.748H1223.16V523.652C1223.69 522.86 1224.6 522.097 1225.89 521.364C1227.21 520.601 1228.6 520.22 1230.07 520.22C1233.15 520.22 1235.08 521.525 1235.87 524.136C1236.55 523.08 1237.55 522.171 1238.87 521.408C1240.19 520.616 1241.59 520.22 1243.09 520.22C1247.17 520.22 1249.21 522.361 1249.21 526.644V542ZM1259.81 542H1255.19V512.652H1259.81V542ZM1266.24 542.88H1262.81L1273.24 511.772H1276.67L1266.24 542.88ZM1289.36 542.528C1286.14 542.528 1283.5 541.487 1281.44 539.404C1279.39 537.292 1278.36 534.608 1278.36 531.352C1278.36 528.125 1279.39 525.471 1281.44 523.388C1283.5 521.276 1286.14 520.22 1289.36 520.22C1292.91 520.22 1295.63 521.481 1297.5 524.004L1294.47 526.82C1293.29 525.148 1291.67 524.312 1289.58 524.312C1287.65 524.312 1286.09 524.972 1284.92 526.292C1283.75 527.583 1283.16 529.269 1283.16 531.352C1283.16 533.435 1283.75 535.136 1284.92 536.456C1286.09 537.776 1287.65 538.436 1289.58 538.436C1291.61 538.436 1293.24 537.6 1294.47 535.928L1297.5 538.744C1295.63 541.267 1292.91 542.528 1289.36 542.528ZM1308.81 542.528C1305 542.528 1301.97 541.428 1299.71 539.228L1301.82 535.884C1302.61 536.705 1303.68 537.409 1305.03 537.996C1306.38 538.583 1307.71 538.876 1309.03 538.876C1310.38 538.876 1311.41 538.612 1312.11 538.084C1312.85 537.556 1313.21 536.867 1313.21 536.016C1313.21 535.253 1312.77 534.667 1311.89 534.256C1311.01 533.816 1309.94 533.479 1308.68 533.244C1307.42 532.98 1306.16 532.672 1304.9 532.32C1303.64 531.939 1302.57 531.279 1301.69 530.34C1300.81 529.401 1300.37 528.184 1300.37 526.688C1300.37 524.869 1301.11 523.344 1302.61 522.112C1304.11 520.851 1306.15 520.22 1308.73 520.22C1311.98 520.22 1314.74 521.217 1317 523.212L1315.06 526.468C1314.39 525.705 1313.49 525.089 1312.38 524.62C1311.26 524.151 1310.06 523.916 1308.77 523.916C1307.57 523.916 1306.6 524.165 1305.87 524.664C1305.16 525.133 1304.81 525.749 1304.81 526.512C1304.81 527.099 1305.12 527.583 1305.73 527.964C1306.38 528.316 1307.17 528.58 1308.11 528.756C1309.08 528.932 1310.12 529.181 1311.23 529.504C1312.35 529.797 1313.38 530.149 1314.31 530.56C1315.28 530.971 1316.07 531.645 1316.69 532.584C1317.34 533.493 1317.66 534.608 1317.66 535.928C1317.66 537.864 1316.88 539.448 1315.33 540.68C1313.77 541.912 1311.6 542.528 1308.81 542.528ZM1329.57 542.528C1325.76 542.528 1322.72 541.428 1320.46 539.228L1322.57 535.884C1323.36 536.705 1324.44 537.409 1325.78 537.996C1327.13 538.583 1328.47 538.876 1329.79 538.876C1331.14 538.876 1332.16 538.612 1332.87 538.084C1333.6 537.556 1333.97 536.867 1333.97 536.016C1333.97 535.253 1333.53 534.667 1332.65 534.256C1331.77 533.816 1330.7 533.479 1329.44 533.244C1328.18 532.98 1326.91 532.672 1325.65 532.32C1324.39 531.939 1323.32 531.279 1322.44 530.34C1321.56 529.401 1321.12 528.184 1321.12 526.688C1321.12 524.869 1321.87 523.344 1323.36 522.112C1324.86 520.851 1326.9 520.22 1329.48 520.22C1332.74 520.22 1335.49 521.217 1337.75 523.212L1335.82 526.468C1335.14 525.705 1334.25 525.089 1333.13 524.62C1332.02 524.151 1330.82 523.916 1329.52 523.916C1328.32 523.916 1327.35 524.165 1326.62 524.664C1325.92 525.133 1325.56 525.749 1325.56 526.512C1325.56 527.099 1325.87 527.583 1326.49 527.964C1327.13 528.316 1327.93 528.58 1328.86 528.756C1329.83 528.932 1330.87 529.181 1331.99 529.504C1333.1 529.797 1334.13 530.149 1335.07 530.56C1336.04 530.971 1336.83 531.645 1337.44 532.584C1338.09 533.493 1338.41 534.608 1338.41 535.928C1338.41 537.864 1337.64 539.448 1336.08 540.68C1334.53 541.912 1332.36 542.528 1329.57 542.528Z" fill="black"/>
<rect x="981.5" y="381.5" width="399" height="239" rx="7.5" stroke="#2CE100"/>
<path d="M1023.41 502.414C1024.2 501.633 1024.2 500.367 1023.41 499.586L1010.69 486.858C1009.91 486.077 1008.64 486.077 1007.86 486.858C1007.08 487.639 1007.08 488.905 1007.86 489.686L1019.17 501L1007.86 512.314C1007.08 513.095 1007.08 514.361 1007.86 515.142C1008.64 515.923 1009.91 515.923 1010.69 515.142L1023.41 502.414ZM932 503H1022V499H932V503Z" fill="black"/>
<path d="M881.346 684H872.914V661.322H881.346C884.859 661.322 887.715 662.376 889.914 664.484C892.113 666.592 893.212 669.323 893.212 672.678C893.212 676.01 892.113 678.73 889.914 680.838C887.738 682.946 884.882 684 881.346 684ZM881.346 680.498C883.726 680.498 885.619 679.75 887.024 678.254C888.429 676.758 889.132 674.899 889.132 672.678C889.132 670.389 888.441 668.507 887.058 667.034C885.698 665.561 883.794 664.824 881.346 664.824H876.892V680.498H881.346ZM904.363 684.408C901.824 684.408 899.784 683.581 898.243 681.926C896.701 680.249 895.931 678.197 895.931 675.772C895.931 673.347 896.701 671.307 898.243 669.652C899.784 667.997 901.824 667.17 904.363 667.17C906.924 667.17 908.975 667.997 910.517 669.652C912.058 671.307 912.829 673.347 912.829 675.772C912.829 678.22 912.058 680.271 910.517 681.926C908.975 683.581 906.924 684.408 904.363 684.408ZM904.363 681.246C905.836 681.246 906.992 680.725 907.831 679.682C908.692 678.617 909.123 677.313 909.123 675.772C909.123 674.253 908.692 672.973 907.831 671.93C906.992 670.865 905.836 670.332 904.363 670.332C902.912 670.332 901.756 670.865 900.895 671.93C900.056 672.973 899.637 674.253 899.637 675.772C899.637 677.313 900.056 678.617 900.895 679.682C901.756 680.725 902.912 681.246 904.363 681.246ZM923.921 684.408C921.428 684.408 919.388 683.603 917.801 681.994C916.214 680.362 915.421 678.288 915.421 675.772C915.421 673.279 916.214 671.227 917.801 669.618C919.388 667.986 921.428 667.17 923.921 667.17C926.664 667.17 928.76 668.145 930.211 670.094L927.865 672.27C926.958 670.978 925.7 670.332 924.091 670.332C922.595 670.332 921.394 670.842 920.487 671.862C919.58 672.859 919.127 674.163 919.127 675.772C919.127 677.381 919.58 678.696 920.487 679.716C921.394 680.736 922.595 681.246 924.091 681.246C925.655 681.246 926.913 680.6 927.865 679.308L930.211 681.484C928.76 683.433 926.664 684.408 923.921 684.408ZM947.995 684H944.425V681.824C942.884 683.547 940.946 684.408 938.611 684.408C935.098 684.408 933.341 682.674 933.341 679.206V667.578H936.911V677.914C936.911 679.115 937.195 679.977 937.761 680.498C938.328 680.997 939.144 681.246 940.209 681.246C941.071 681.246 941.875 681.042 942.623 680.634C943.371 680.226 943.972 679.716 944.425 679.104V667.578H947.995V684ZM958.242 684.408C955.296 684.408 952.95 683.558 951.204 681.858L952.836 679.274C953.448 679.909 954.276 680.453 955.318 680.906C956.361 681.359 957.392 681.586 958.412 681.586C959.455 681.586 960.248 681.382 960.792 680.974C961.359 680.566 961.642 680.033 961.642 679.376C961.642 678.787 961.302 678.333 960.622 678.016C959.942 677.676 959.115 677.415 958.14 677.234C957.166 677.03 956.191 676.792 955.216 676.52C954.242 676.225 953.414 675.715 952.734 674.99C952.054 674.265 951.714 673.324 951.714 672.168C951.714 670.763 952.292 669.584 953.448 668.632C954.604 667.657 956.18 667.17 958.174 667.17C960.69 667.17 962.821 667.941 964.566 669.482L963.07 671.998C962.549 671.409 961.858 670.933 960.996 670.57C960.135 670.207 959.206 670.026 958.208 670.026C957.279 670.026 956.531 670.219 955.964 670.604C955.42 670.967 955.148 671.443 955.148 672.032C955.148 672.485 955.386 672.859 955.862 673.154C956.361 673.426 956.973 673.63 957.698 673.766C958.446 673.902 959.251 674.095 960.112 674.344C960.974 674.571 961.767 674.843 962.492 675.16C963.24 675.477 963.852 675.999 964.328 676.724C964.827 677.427 965.076 678.288 965.076 679.308C965.076 680.804 964.476 682.028 963.274 682.98C962.073 683.932 960.396 684.408 958.242 684.408ZM982.269 684H978.699V682.232C977.43 683.683 975.662 684.408 973.395 684.408C971.899 684.408 970.573 683.932 969.417 682.98C968.261 682.005 967.683 680.668 967.683 678.968C967.683 677.223 968.25 675.897 969.383 674.99C970.539 674.083 971.877 673.63 973.395 673.63C975.73 673.63 977.498 674.333 978.699 675.738V673.29C978.699 672.338 978.348 671.59 977.645 671.046C976.943 670.502 976.013 670.23 974.857 670.23C973.021 670.23 971.401 670.921 969.995 672.304L968.533 669.822C970.392 668.054 972.693 667.17 975.435 667.17C977.453 667.17 979.096 667.646 980.365 668.598C981.635 669.55 982.269 671.057 982.269 673.12V684ZM974.789 681.96C976.58 681.96 977.883 681.393 978.699 680.26V677.778C977.883 676.645 976.58 676.078 974.789 676.078C973.769 676.078 972.931 676.35 972.273 676.894C971.616 677.438 971.287 678.152 971.287 679.036C971.287 679.92 971.616 680.634 972.273 681.178C972.931 681.699 973.769 681.96 974.789 681.96ZM1001.55 684H997.982V681.824C996.441 683.547 994.503 684.408 992.168 684.408C988.655 684.408 986.898 682.674 986.898 679.206V667.578H990.468V677.914C990.468 679.115 990.751 679.977 991.318 680.498C991.885 680.997 992.701 681.246 993.766 681.246C994.627 681.246 995.432 681.042 996.18 680.634C996.928 680.226 997.529 679.716 997.982 679.104V667.578H1001.55V684ZM1009.76 684H1006.19V667.578H1009.76V669.992C1010.39 669.176 1011.19 668.507 1012.14 667.986C1013.09 667.465 1014.08 667.204 1015.1 667.204V670.74C1014.78 670.672 1014.41 670.638 1013.97 670.638C1013.23 670.638 1012.42 670.865 1011.56 671.318C1010.72 671.749 1010.12 672.247 1009.76 672.814V684ZM1032.63 684H1029.06V681.824C1027.52 683.547 1025.58 684.408 1023.25 684.408C1019.73 684.408 1017.98 682.674 1017.98 679.206V667.578H1021.55V677.914C1021.55 679.115 1021.83 679.977 1022.4 680.498C1022.96 680.997 1023.78 681.246 1024.84 681.246C1025.71 681.246 1026.51 681.042 1027.26 680.634C1028.01 680.226 1028.61 679.716 1029.06 679.104V667.578H1032.63V684ZM1042.88 684.408C1039.93 684.408 1037.58 683.558 1035.84 681.858L1037.47 679.274C1038.08 679.909 1038.91 680.453 1039.95 680.906C1041 681.359 1042.03 681.586 1043.05 681.586C1044.09 681.586 1044.88 681.382 1045.43 680.974C1045.99 680.566 1046.28 680.033 1046.28 679.376C1046.28 678.787 1045.94 678.333 1045.26 678.016C1044.58 677.676 1043.75 677.415 1042.78 677.234C1041.8 677.03 1040.83 676.792 1039.85 676.52C1038.88 676.225 1038.05 675.715 1037.37 674.99C1036.69 674.265 1036.35 673.324 1036.35 672.168C1036.35 670.763 1036.93 669.584 1038.08 668.632C1039.24 667.657 1040.81 667.17 1042.81 667.17C1045.33 667.17 1047.46 667.941 1049.2 669.482L1047.71 671.998C1047.18 671.409 1046.49 670.933 1045.63 670.57C1044.77 670.207 1043.84 670.026 1042.84 670.026C1041.91 670.026 1041.17 670.219 1040.6 670.604C1040.06 670.967 1039.78 671.443 1039.78 672.032C1039.78 672.485 1040.02 672.859 1040.5 673.154C1041 673.426 1041.61 673.63 1042.33 673.766C1043.08 673.902 1043.89 674.095 1044.75 674.344C1045.61 674.571 1046.4 674.843 1047.13 675.16C1047.88 675.477 1048.49 675.999 1048.96 676.724C1049.46 677.427 1049.71 678.288 1049.71 679.308C1049.71 680.804 1049.11 682.028 1047.91 682.98C1046.71 683.932 1045.03 684.408 1042.88 684.408Z" fill="black"/>
<rect x="513.5" y="332.5" width="895" height="411" rx="18.5" stroke="#09090A" stroke-width="3" stroke-dasharray="10 10"/>
<path d="M1570.29 544.442C1566.94 544.442 1564.12 543.354 1561.83 541.178C1559.54 539.002 1558.39 536.169 1558.39 532.678C1558.39 529.187 1559.54 526.365 1561.83 524.212C1564.12 522.036 1566.94 520.948 1570.29 520.948C1574.19 520.948 1577.24 522.523 1579.44 525.674L1576.18 527.51C1575.54 526.626 1574.7 525.901 1573.66 525.334C1572.64 524.767 1571.52 524.484 1570.29 524.484C1568.05 524.484 1566.18 525.255 1564.68 526.796C1563.21 528.337 1562.47 530.298 1562.47 532.678C1562.47 535.058 1563.21 537.03 1564.68 538.594C1566.18 540.135 1568.05 540.906 1570.29 540.906C1571.36 540.906 1572.37 540.702 1573.32 540.294C1574.29 539.886 1575.08 539.41 1575.67 538.866V535.33H1568.9V531.828H1579.64V540.328C1577.17 543.071 1574.06 544.442 1570.29 544.442ZM1585.45 525.572C1584.86 525.572 1584.34 525.357 1583.89 524.926C1583.46 524.495 1583.24 523.974 1583.24 523.362C1583.24 522.75 1583.46 522.229 1583.89 521.798C1584.34 521.367 1584.86 521.152 1585.45 521.152C1586.06 521.152 1586.58 521.367 1587.02 521.798C1587.45 522.229 1587.66 522.75 1587.66 523.362C1587.66 523.974 1587.45 524.495 1587.02 524.926C1586.58 525.357 1586.06 525.572 1585.45 525.572ZM1587.25 544H1583.68V527.578H1587.25V544ZM1596.81 544.408C1595.43 544.408 1594.38 544.045 1593.65 543.32C1592.95 542.595 1592.6 541.552 1592.6 540.192V530.706H1589.88V527.578H1592.6V523.09H1596.17V527.578H1599.5V530.706H1596.17V539.308C1596.17 539.897 1596.3 540.373 1596.58 540.736C1596.85 541.076 1597.23 541.246 1597.73 541.246C1598.46 541.246 1598.99 541.053 1599.33 540.668L1600.18 543.354C1599.43 544.057 1598.31 544.408 1596.81 544.408ZM1606.31 544H1602.74V521.322H1606.31V544ZM1624.54 544H1620.97V542.232C1619.7 543.683 1617.94 544.408 1615.67 544.408C1614.17 544.408 1612.85 543.932 1611.69 542.98C1610.53 542.005 1609.96 540.668 1609.96 538.968C1609.96 537.223 1610.52 535.897 1611.66 534.99C1612.81 534.083 1614.15 533.63 1615.67 533.63C1618 533.63 1619.77 534.333 1620.97 535.738V533.29C1620.97 532.338 1620.62 531.59 1619.92 531.046C1619.22 530.502 1618.29 530.23 1617.13 530.23C1615.29 530.23 1613.67 530.921 1612.27 532.304L1610.81 529.822C1612.67 528.054 1614.97 527.17 1617.71 527.17C1619.73 527.17 1621.37 527.646 1622.64 528.598C1623.91 529.55 1624.54 531.057 1624.54 533.12V544ZM1617.06 541.96C1618.85 541.96 1620.16 541.393 1620.97 540.26V537.778C1620.16 536.645 1618.85 536.078 1617.06 536.078C1616.04 536.078 1615.2 536.35 1614.55 536.894C1613.89 537.438 1613.56 538.152 1613.56 539.036C1613.56 539.92 1613.89 540.634 1614.55 541.178C1615.2 541.699 1616.04 541.96 1617.06 541.96ZM1632.74 539.07C1633.13 539.682 1633.72 540.203 1634.51 540.634C1635.33 541.042 1636.14 541.246 1636.96 541.246C1638.36 541.246 1639.48 540.747 1640.32 539.75C1641.18 538.73 1641.62 537.415 1641.62 535.806C1641.62 534.197 1641.18 532.882 1640.32 531.862C1639.48 530.842 1638.36 530.332 1636.96 530.332C1636.14 530.332 1635.34 530.547 1634.54 530.978C1633.75 531.409 1633.15 531.941 1632.74 532.576V539.07ZM1632.74 544H1629.17V521.322H1632.74V529.856C1634.08 528.065 1635.84 527.17 1638.01 527.17C1640.14 527.17 1641.89 527.963 1643.25 529.55C1644.61 531.114 1645.29 533.199 1645.29 535.806C1645.29 538.458 1644.61 540.555 1643.25 542.096C1641.89 543.637 1640.14 544.408 1638.01 544.408C1635.86 544.408 1634.1 543.524 1632.74 541.756V544ZM1666.5 544.408C1664.32 544.408 1662.57 543.513 1661.23 541.722V550.256H1657.66V527.578H1661.23V529.822C1662.54 528.054 1664.3 527.17 1666.5 527.17C1668.65 527.17 1670.4 527.941 1671.74 529.482C1673.1 531.023 1673.78 533.12 1673.78 535.772C1673.78 538.424 1673.1 540.532 1671.74 542.096C1670.4 543.637 1668.65 544.408 1666.5 544.408ZM1665.45 541.246C1666.85 541.246 1667.97 540.736 1668.81 539.716C1669.65 538.696 1670.07 537.381 1670.07 535.772C1670.07 534.163 1669.65 532.859 1668.81 531.862C1667.97 530.842 1666.85 530.332 1665.45 530.332C1664.63 530.332 1663.82 530.547 1663.03 530.978C1662.24 531.409 1661.64 531.93 1661.23 532.542V539.036C1661.64 539.648 1662.24 540.169 1663.03 540.6C1663.82 541.031 1664.63 541.246 1665.45 541.246ZM1690.92 544H1687.35V542.232C1686.08 543.683 1684.31 544.408 1682.04 544.408C1680.55 544.408 1679.22 543.932 1678.06 542.98C1676.91 542.005 1676.33 540.668 1676.33 538.968C1676.33 537.223 1676.9 535.897 1678.03 534.99C1679.19 534.083 1680.52 533.63 1682.04 533.63C1684.38 533.63 1686.14 534.333 1687.35 535.738V533.29C1687.35 532.338 1686.99 531.59 1686.29 531.046C1685.59 530.502 1684.66 530.23 1683.5 530.23C1681.67 530.23 1680.05 530.921 1678.64 532.304L1677.18 529.822C1679.04 528.054 1681.34 527.17 1684.08 527.17C1686.1 527.17 1687.74 527.646 1689.01 528.598C1690.28 529.55 1690.92 531.057 1690.92 533.12V544ZM1683.44 541.96C1685.23 541.96 1686.53 541.393 1687.35 540.26V537.778C1686.53 536.645 1685.23 536.078 1683.44 536.078C1682.42 536.078 1681.58 536.35 1680.92 536.894C1680.26 537.438 1679.93 538.152 1679.93 539.036C1679.93 539.92 1680.26 540.634 1680.92 541.178C1681.58 541.699 1682.42 541.96 1683.44 541.96ZM1702.21 550.664C1699.42 550.664 1697.13 549.848 1695.34 548.216L1697.01 545.632C1698.23 547.037 1699.96 547.74 1702.21 547.74C1703.57 547.74 1704.71 547.377 1705.64 546.652C1706.59 545.949 1707.07 544.827 1707.07 543.286V541.314C1705.67 543.127 1703.91 544.034 1701.8 544.034C1699.65 544.034 1697.89 543.286 1696.53 541.79C1695.19 540.294 1694.52 538.231 1694.52 535.602C1694.52 532.995 1695.19 530.944 1696.53 529.448C1697.89 527.929 1699.65 527.17 1701.8 527.17C1703.95 527.17 1705.71 528.065 1707.07 529.856V527.578H1710.64V543.15C1710.64 544.555 1710.39 545.768 1709.89 546.788C1709.42 547.831 1708.76 548.613 1707.92 549.134C1707.08 549.678 1706.19 550.063 1705.23 550.29C1704.31 550.539 1703.3 550.664 1702.21 550.664ZM1702.85 540.872C1703.67 540.872 1704.48 540.657 1705.27 540.226C1706.06 539.795 1706.66 539.274 1707.07 538.662V532.542C1706.66 531.93 1706.06 531.409 1705.27 530.978C1704.48 530.547 1703.67 530.332 1702.85 530.332C1701.45 530.332 1700.33 530.819 1699.49 531.794C1698.65 532.746 1698.23 534.015 1698.23 535.602C1698.23 537.189 1698.65 538.469 1699.49 539.444C1700.33 540.396 1701.45 540.872 1702.85 540.872ZM1722.85 544.408C1720.36 544.408 1718.29 543.615 1716.66 542.028C1715.05 540.419 1714.25 538.333 1714.25 535.772C1714.25 533.369 1715.03 531.341 1716.59 529.686C1718.18 528.009 1720.17 527.17 1722.58 527.17C1725 527.17 1726.95 528.009 1728.43 529.686C1729.92 531.363 1730.67 533.505 1730.67 536.112V536.962H1717.99C1718.12 538.254 1718.66 539.331 1719.59 540.192C1720.51 541.053 1721.73 541.484 1723.22 541.484C1724.06 541.484 1724.9 541.325 1725.74 541.008C1726.6 540.691 1727.31 540.249 1727.88 539.682L1729.51 542.028C1727.86 543.615 1725.64 544.408 1722.85 544.408ZM1727.2 534.446C1727.16 533.313 1726.74 532.304 1725.94 531.42C1725.17 530.536 1724.05 530.094 1722.58 530.094C1721.17 530.094 1720.07 530.536 1719.28 531.42C1718.49 532.281 1718.04 533.29 1717.95 534.446H1727.2ZM1739.8 544.408C1736.86 544.408 1734.51 543.558 1732.76 541.858L1734.4 539.274C1735.01 539.909 1735.84 540.453 1736.88 540.906C1737.92 541.359 1738.95 541.586 1739.97 541.586C1741.02 541.586 1741.81 541.382 1742.35 540.974C1742.92 540.566 1743.2 540.033 1743.2 539.376C1743.2 538.787 1742.86 538.333 1742.18 538.016C1741.5 537.676 1740.68 537.415 1739.7 537.234C1738.73 537.03 1737.75 536.792 1736.78 536.52C1735.8 536.225 1734.97 535.715 1734.29 534.99C1733.61 534.265 1733.27 533.324 1733.27 532.168C1733.27 530.763 1733.85 529.584 1735.01 528.632C1736.16 527.657 1737.74 527.17 1739.73 527.17C1742.25 527.17 1744.38 527.941 1746.13 529.482L1744.63 531.998C1744.11 531.409 1743.42 530.933 1742.56 530.57C1741.7 530.207 1740.77 530.026 1739.77 530.026C1738.84 530.026 1738.09 530.219 1737.52 530.604C1736.98 530.967 1736.71 531.443 1736.71 532.032C1736.71 532.485 1736.95 532.859 1737.42 533.154C1737.92 533.426 1738.53 533.63 1739.26 533.766C1740.01 533.902 1740.81 534.095 1741.67 534.344C1742.53 534.571 1743.33 534.843 1744.05 535.16C1744.8 535.477 1745.41 535.999 1745.89 536.724C1746.39 537.427 1746.64 538.288 1746.64 539.308C1746.64 540.804 1746.04 542.028 1744.83 542.98C1743.63 543.932 1741.96 544.408 1739.8 544.408Z" fill="black"/>
<path d="M204.794 330.442C201.439 330.442 198.617 329.354 196.328 327.178C194.039 325.002 192.894 322.169 192.894 318.678C192.894 315.187 194.039 312.365 196.328 310.212C198.617 308.036 201.439 306.948 204.794 306.948C208.693 306.948 211.741 308.523 213.94 311.674L210.676 313.51C210.041 312.626 209.203 311.901 208.16 311.334C207.14 310.767 206.018 310.484 204.794 310.484C202.55 310.484 200.68 311.255 199.184 312.796C197.711 314.337 196.974 316.298 196.974 318.678C196.974 321.058 197.711 323.03 199.184 324.594C200.68 326.135 202.55 326.906 204.794 326.906C205.859 326.906 206.868 326.702 207.82 326.294C208.795 325.886 209.577 325.41 210.166 324.866V321.33H203.4V317.828H214.144V326.328C211.673 329.071 208.557 330.442 204.794 330.442ZM219.951 311.572C219.362 311.572 218.84 311.357 218.387 310.926C217.956 310.495 217.741 309.974 217.741 309.362C217.741 308.75 217.956 308.229 218.387 307.798C218.84 307.367 219.362 307.152 219.951 307.152C220.563 307.152 221.084 307.367 221.515 307.798C221.946 308.229 222.161 308.75 222.161 309.362C222.161 309.974 221.946 310.495 221.515 310.926C221.084 311.357 220.563 311.572 219.951 311.572ZM221.753 330H218.183V313.578H221.753V330ZM231.314 330.408C229.932 330.408 228.878 330.045 228.152 329.32C227.45 328.595 227.098 327.552 227.098 326.192V316.706H224.378V313.578H227.098V309.09H230.668V313.578H234V316.706H230.668V325.308C230.668 325.897 230.804 326.373 231.076 326.736C231.348 327.076 231.734 327.246 232.232 327.246C232.958 327.246 233.49 327.053 233.83 326.668L234.68 329.354C233.932 330.057 232.81 330.408 231.314 330.408ZM240.812 330H237.242V307.322H240.812V330ZM259.043 330H255.473V328.232C254.204 329.683 252.436 330.408 250.169 330.408C248.673 330.408 247.347 329.932 246.191 328.98C245.035 328.005 244.457 326.668 244.457 324.968C244.457 323.223 245.024 321.897 246.157 320.99C247.313 320.083 248.65 319.63 250.169 319.63C252.504 319.63 254.272 320.333 255.473 321.738V319.29C255.473 318.338 255.122 317.59 254.419 317.046C253.716 316.502 252.787 316.23 251.631 316.23C249.795 316.23 248.174 316.921 246.769 318.304L245.307 315.822C247.166 314.054 249.466 313.17 252.209 313.17C254.226 313.17 255.87 313.646 257.139 314.598C258.408 315.55 259.043 317.057 259.043 319.12V330ZM251.563 327.96C253.354 327.96 254.657 327.393 255.473 326.26V323.778C254.657 322.645 253.354 322.078 251.563 322.078C250.543 322.078 249.704 322.35 249.047 322.894C248.39 323.438 248.061 324.152 248.061 325.036C248.061 325.92 248.39 326.634 249.047 327.178C249.704 327.699 250.543 327.96 251.563 327.96ZM267.241 325.07C267.627 325.682 268.216 326.203 269.009 326.634C269.825 327.042 270.641 327.246 271.457 327.246C272.863 327.246 273.985 326.747 274.823 325.75C275.685 324.73 276.115 323.415 276.115 321.806C276.115 320.197 275.685 318.882 274.823 317.862C273.985 316.842 272.863 316.332 271.457 316.332C270.641 316.332 269.837 316.547 269.043 316.978C268.25 317.409 267.649 317.941 267.241 318.576V325.07ZM267.241 330H263.671V307.322H267.241V315.856C268.579 314.065 270.335 313.17 272.511 313.17C274.642 313.17 276.387 313.963 277.747 315.55C279.107 317.114 279.787 319.199 279.787 321.806C279.787 324.458 279.107 326.555 277.747 328.096C276.387 329.637 274.642 330.408 272.511 330.408C270.358 330.408 268.601 329.524 267.241 327.756V330ZM309.806 330H305.216L300.184 321.534H296.24V330H292.262V307.322H302.224C304.445 307.322 306.236 307.979 307.596 309.294C308.956 310.609 309.636 312.32 309.636 314.428C309.636 316.332 309.114 317.862 308.072 319.018C307.029 320.151 305.76 320.843 304.264 321.092L309.806 330ZM301.68 318.032C302.813 318.032 303.742 317.703 304.468 317.046C305.193 316.389 305.556 315.516 305.556 314.428C305.556 313.34 305.193 312.467 304.468 311.81C303.742 311.153 302.813 310.824 301.68 310.824H296.24V318.032H301.68ZM320.062 330.408C317.569 330.408 315.506 329.615 313.874 328.028C312.265 326.419 311.46 324.333 311.46 321.772C311.46 319.369 312.242 317.341 313.806 315.686C315.393 314.009 317.387 313.17 319.79 313.17C322.215 313.17 324.165 314.009 325.638 315.686C327.134 317.363 327.882 319.505 327.882 322.112V322.962H315.2C315.336 324.254 315.869 325.331 316.798 326.192C317.727 327.053 318.94 327.484 320.436 327.484C321.275 327.484 322.113 327.325 322.952 327.008C323.813 326.691 324.527 326.249 325.094 325.682L326.726 328.028C325.071 329.615 322.85 330.408 320.062 330.408ZM324.414 320.446C324.369 319.313 323.949 318.304 323.156 317.42C322.385 316.536 321.263 316.094 319.79 316.094C318.385 316.094 317.285 316.536 316.492 317.42C315.699 318.281 315.257 319.29 315.166 320.446H324.414ZM340.246 330.408C338.07 330.408 336.313 329.513 334.976 327.722V336.256H331.406V313.578H334.976V315.822C336.29 314.054 338.047 313.17 340.246 313.17C342.399 313.17 344.144 313.941 345.482 315.482C346.842 317.023 347.522 319.12 347.522 321.772C347.522 324.424 346.842 326.532 345.482 328.096C344.144 329.637 342.399 330.408 340.246 330.408ZM339.192 327.246C340.597 327.246 341.719 326.736 342.558 325.716C343.396 324.696 343.816 323.381 343.816 321.772C343.816 320.163 343.396 318.859 342.558 317.862C341.719 316.842 340.597 316.332 339.192 316.332C338.376 316.332 337.571 316.547 336.778 316.978C335.984 317.409 335.384 317.93 334.976 318.542V325.036C335.384 325.648 335.984 326.169 336.778 326.6C337.571 327.031 338.376 327.246 339.192 327.246ZM358.474 330.408C355.935 330.408 353.895 329.581 352.354 327.926C350.813 326.249 350.042 324.197 350.042 321.772C350.042 319.347 350.813 317.307 352.354 315.652C353.895 313.997 355.935 313.17 358.474 313.17C361.035 313.17 363.087 313.997 364.628 315.652C366.169 317.307 366.94 319.347 366.94 321.772C366.94 324.22 366.169 326.271 364.628 327.926C363.087 329.581 361.035 330.408 358.474 330.408ZM358.474 327.246C359.947 327.246 361.103 326.725 361.942 325.682C362.803 324.617 363.234 323.313 363.234 321.772C363.234 320.253 362.803 318.973 361.942 317.93C361.103 316.865 359.947 316.332 358.474 316.332C357.023 316.332 355.867 316.865 355.006 317.93C354.167 318.973 353.748 320.253 353.748 321.772C353.748 323.313 354.167 324.617 355.006 325.682C355.867 326.725 357.023 327.246 358.474 327.246Z" fill="black"/>
<rect x="80.5" y="381.5" width="399" height="239" rx="7.5" fill="#FFEBEB"/>
<path d="M179.584 514.5H175.14V493.248H179.76V507.548L189.528 493.248H194.148V514.5H189.528V499.804L179.584 514.5ZM209.828 515.028C206.602 515.028 203.962 513.987 201.908 511.904C199.855 509.792 198.828 507.108 198.828 503.852C198.828 500.625 199.855 497.971 201.908 495.888C203.962 493.776 206.602 492.72 209.828 492.72C213.378 492.72 216.091 493.981 217.968 496.504L214.932 499.32C213.759 497.648 212.131 496.812 210.048 496.812C208.112 496.812 206.558 497.472 205.384 498.792C204.211 500.083 203.624 501.769 203.624 503.852C203.624 505.935 204.211 507.636 205.384 508.956C206.558 510.276 208.112 510.936 210.048 510.936C212.072 510.936 213.7 510.1 214.932 508.428L217.968 511.244C216.091 513.767 213.378 515.028 209.828 515.028ZM240.631 514.5H235.439L229.939 506.668L224.395 514.5H219.247L227.035 503.588L219.687 493.248H224.879L229.939 500.464L234.955 493.248H240.147L232.799 503.588L240.631 514.5ZM251.893 515.028C248.607 515.028 245.967 513.957 243.973 511.816C241.978 509.645 240.981 506.991 240.981 503.852C240.981 500.713 241.978 498.073 243.973 495.932C245.967 493.791 248.607 492.72 251.893 492.72C255.207 492.72 257.862 493.791 259.857 495.932C261.851 498.073 262.849 500.713 262.849 503.852C262.849 507.02 261.851 509.675 259.857 511.816C257.862 513.957 255.207 515.028 251.893 515.028ZM251.893 510.936C253.799 510.936 255.295 510.261 256.381 508.912C257.495 507.533 258.053 505.847 258.053 503.852C258.053 501.887 257.495 500.229 256.381 498.88C255.295 497.501 253.799 496.812 251.893 496.812C250.015 496.812 248.519 497.501 247.405 498.88C246.319 500.229 245.777 501.887 245.777 503.852C245.777 505.847 246.319 507.533 247.405 508.912C248.519 510.261 250.015 510.936 251.893 510.936ZM265.323 519.912V510.672C266.321 510.437 267.069 509.865 267.567 508.956C268.095 508.017 268.521 506.228 268.843 503.588L270.119 493.248H286.531V510.452H288.863V519.912H284.243V514.5H269.943V519.912H265.323ZM274.211 497.296L273.463 504.116C273.17 506.932 272.231 509.044 270.647 510.452H281.911V497.296H274.211ZM297.28 514.5H292.66V493.248H297.28V501.608H307.048V493.248H311.668V514.5H307.048V505.656H297.28V514.5ZM322.112 514.5H317.668V493.248H322.288V507.548L332.056 493.248H336.676V514.5H332.056V499.804L322.112 514.5ZM362.564 514.5H356.756L350.244 505.744L347.296 508.78V514.5H342.676V493.248H347.296V503.5L356.668 493.248H362.388L353.544 502.884L362.564 514.5ZM370.28 514.5H365.836V493.248H370.456V507.548L380.224 493.248H384.844V514.5H380.224V499.804L370.28 514.5Z" fill="black"/>
<rect x="80.5" y="381.5" width="399" height="239" rx="7.5" stroke="#FF4141"/>
<path d="M225.51 693H221.94V682.29C221.94 680.318 221.045 679.332 219.254 679.332C218.506 679.332 217.781 679.547 217.078 679.978C216.375 680.409 215.831 680.919 215.446 681.508V693H211.876V682.29C211.876 680.318 210.969 679.332 209.156 679.332C208.431 679.332 207.717 679.547 207.014 679.978C206.334 680.409 205.79 680.93 205.382 681.542V693H201.812V676.578H205.382V678.822C205.79 678.21 206.493 677.621 207.49 677.054C208.51 676.465 209.587 676.17 210.72 676.17C213.1 676.17 214.596 677.179 215.208 679.196C215.729 678.38 216.5 677.677 217.52 677.088C218.54 676.476 219.628 676.17 220.784 676.17C223.935 676.17 225.51 677.825 225.51 681.134V693ZM243.734 693H240.164V691.232C238.895 692.683 237.127 693.408 234.86 693.408C233.364 693.408 232.038 692.932 230.882 691.98C229.726 691.005 229.148 689.668 229.148 687.968C229.148 686.223 229.715 684.897 230.848 683.99C232.004 683.083 233.342 682.63 234.86 682.63C237.195 682.63 238.963 683.333 240.164 684.738V682.29C240.164 681.338 239.813 680.59 239.11 680.046C238.408 679.502 237.478 679.23 236.322 679.23C234.486 679.23 232.866 679.921 231.46 681.304L229.998 678.822C231.857 677.054 234.158 676.17 236.9 676.17C238.918 676.17 240.561 676.646 241.83 677.598C243.1 678.55 243.734 680.057 243.734 682.12V693ZM236.254 690.96C238.045 690.96 239.348 690.393 240.164 689.26V686.778C239.348 685.645 238.045 685.078 236.254 685.078C235.234 685.078 234.396 685.35 233.738 685.894C233.081 686.438 232.752 687.152 232.752 688.036C232.752 688.92 233.081 689.634 233.738 690.178C234.396 690.699 235.234 690.96 236.254 690.96ZM251.933 693H248.363V676.578H251.933V678.992C252.567 678.176 253.361 677.507 254.313 676.986C255.265 676.465 256.251 676.204 257.271 676.204V679.74C256.953 679.672 256.579 679.638 256.149 679.638C255.401 679.638 254.596 679.865 253.735 680.318C252.896 680.749 252.295 681.247 251.933 681.814V693ZM275.518 693H271.03L265.998 686.234L263.72 688.58V693H260.15V670.322H263.72V684.5L270.962 676.578H275.382L268.548 684.024L275.518 693ZM293.01 693H289.44V690.756C288.08 692.524 286.324 693.408 284.17 693.408C282.017 693.408 280.26 692.637 278.9 691.096C277.54 689.555 276.86 687.458 276.86 684.806C276.86 682.177 277.54 680.08 278.9 678.516C280.26 676.952 282.017 676.17 284.17 676.17C286.324 676.17 288.08 677.065 289.44 678.856V670.322H293.01V693ZM285.19 690.246C286.029 690.246 286.845 690.042 287.638 689.634C288.432 689.226 289.032 688.705 289.44 688.07V681.542C289.032 680.907 288.432 680.386 287.638 679.978C286.845 679.547 286.029 679.332 285.19 679.332C283.785 679.332 282.663 679.842 281.824 680.862C280.986 681.882 280.566 683.197 280.566 684.806C280.566 686.415 280.986 687.73 281.824 688.75C282.663 689.747 283.785 690.246 285.19 690.246ZM305.048 693.408C302.51 693.408 300.47 692.581 298.928 690.926C297.387 689.249 296.616 687.197 296.616 684.772C296.616 682.347 297.387 680.307 298.928 678.652C300.47 676.997 302.51 676.17 305.048 676.17C307.61 676.17 309.661 676.997 311.202 678.652C312.744 680.307 313.514 682.347 313.514 684.772C313.514 687.22 312.744 689.271 311.202 690.926C309.661 692.581 307.61 693.408 305.048 693.408ZM305.048 690.246C306.522 690.246 307.678 689.725 308.516 688.682C309.378 687.617 309.808 686.313 309.808 684.772C309.808 683.253 309.378 681.973 308.516 680.93C307.678 679.865 306.522 679.332 305.048 679.332C303.598 679.332 302.442 679.865 301.58 680.93C300.742 681.973 300.322 683.253 300.322 684.772C300.322 686.313 300.742 687.617 301.58 688.682C302.442 689.725 303.598 690.246 305.048 690.246ZM335.18 693H331.44L327.632 680.964L323.824 693H320.084L314.984 676.578H318.69L322.158 688.512L326.068 676.578H329.196L333.106 688.512L336.574 676.578H340.28L335.18 693ZM357.413 693H353.843V682.732C353.843 680.465 352.744 679.332 350.545 679.332C349.684 679.332 348.879 679.547 348.131 679.978C347.383 680.409 346.783 680.93 346.329 681.542V693H342.759V676.578H346.329V678.822C346.941 678.097 347.757 677.473 348.777 676.952C349.797 676.431 350.908 676.17 352.109 676.17C353.855 676.17 355.169 676.623 356.053 677.53C356.96 678.437 357.413 679.74 357.413 681.44V693Z" fill="black"/>
<path d="M888.294 280.442C884.939 280.442 882.117 279.354 879.828 277.178C877.539 275.002 876.394 272.169 876.394 268.678C876.394 265.187 877.539 262.365 879.828 260.212C882.117 258.036 884.939 256.948 888.294 256.948C892.193 256.948 895.241 258.523 897.44 261.674L894.176 263.51C893.541 262.626 892.703 261.901 891.66 261.334C890.64 260.767 889.518 260.484 888.294 260.484C886.05 260.484 884.18 261.255 882.684 262.796C881.211 264.337 880.474 266.298 880.474 268.678C880.474 271.058 881.211 273.03 882.684 274.594C884.18 276.135 886.05 276.906 888.294 276.906C889.359 276.906 890.368 276.702 891.32 276.294C892.295 275.886 893.077 275.41 893.666 274.866V271.33H886.9V267.828H897.644V276.328C895.173 279.071 892.057 280.442 888.294 280.442ZM903.451 261.572C902.862 261.572 902.34 261.357 901.887 260.926C901.456 260.495 901.241 259.974 901.241 259.362C901.241 258.75 901.456 258.229 901.887 257.798C902.34 257.367 902.862 257.152 903.451 257.152C904.063 257.152 904.584 257.367 905.015 257.798C905.446 258.229 905.661 258.75 905.661 259.362C905.661 259.974 905.446 260.495 905.015 260.926C904.584 261.357 904.063 261.572 903.451 261.572ZM905.253 280H901.683V263.578H905.253V280ZM914.814 280.408C913.432 280.408 912.378 280.045 911.652 279.32C910.95 278.595 910.598 277.552 910.598 276.192V266.706H907.878V263.578H910.598V259.09H914.168V263.578H917.5V266.706H914.168V275.308C914.168 275.897 914.304 276.373 914.576 276.736C914.848 277.076 915.234 277.246 915.732 277.246C916.458 277.246 916.99 277.053 917.33 276.668L918.18 279.354C917.432 280.057 916.31 280.408 914.814 280.408ZM924.312 280H920.742V257.322H924.312V280ZM942.543 280H938.973V278.232C937.704 279.683 935.936 280.408 933.669 280.408C932.173 280.408 930.847 279.932 929.691 278.98C928.535 278.005 927.957 276.668 927.957 274.968C927.957 273.223 928.524 271.897 929.657 270.99C930.813 270.083 932.15 269.63 933.669 269.63C936.004 269.63 937.772 270.333 938.973 271.738V269.29C938.973 268.338 938.622 267.59 937.919 267.046C937.216 266.502 936.287 266.23 935.131 266.23C933.295 266.23 931.674 266.921 930.269 268.304L928.807 265.822C930.666 264.054 932.966 263.17 935.709 263.17C937.726 263.17 939.37 263.646 940.639 264.598C941.908 265.55 942.543 267.057 942.543 269.12V280ZM935.063 277.96C936.854 277.96 938.157 277.393 938.973 276.26V273.778C938.157 272.645 936.854 272.078 935.063 272.078C934.043 272.078 933.204 272.35 932.547 272.894C931.89 273.438 931.561 274.152 931.561 275.036C931.561 275.92 931.89 276.634 932.547 277.178C933.204 277.699 934.043 277.96 935.063 277.96ZM950.741 275.07C951.127 275.682 951.716 276.203 952.509 276.634C953.325 277.042 954.141 277.246 954.957 277.246C956.363 277.246 957.485 276.747 958.323 275.75C959.185 274.73 959.615 273.415 959.615 271.806C959.615 270.197 959.185 268.882 958.323 267.862C957.485 266.842 956.363 266.332 954.957 266.332C954.141 266.332 953.337 266.547 952.543 266.978C951.75 267.409 951.149 267.941 950.741 268.576V275.07ZM950.741 280H947.171V257.322H950.741V265.856C952.079 264.065 953.835 263.17 956.011 263.17C958.142 263.17 959.887 263.963 961.247 265.55C962.607 267.114 963.287 269.199 963.287 271.806C963.287 274.458 962.607 276.555 961.247 278.096C959.887 279.637 958.142 280.408 956.011 280.408C953.858 280.408 952.101 279.524 950.741 277.756V280ZM983.14 280.408C980.646 280.408 978.606 279.603 977.02 277.994C975.433 276.362 974.64 274.288 974.64 271.772C974.64 269.279 975.433 267.227 977.02 265.618C978.606 263.986 980.646 263.17 983.14 263.17C985.882 263.17 987.979 264.145 989.43 266.094L987.084 268.27C986.177 266.978 984.919 266.332 983.31 266.332C981.814 266.332 980.612 266.842 979.706 267.862C978.799 268.859 978.346 270.163 978.346 271.772C978.346 273.381 978.799 274.696 979.706 275.716C980.612 276.736 981.814 277.246 983.31 277.246C984.874 277.246 986.132 276.6 987.084 275.308L989.43 277.484C987.979 279.433 985.882 280.408 983.14 280.408ZM994.328 261.572C993.739 261.572 993.217 261.357 992.764 260.926C992.333 260.495 992.118 259.974 992.118 259.362C992.118 258.75 992.333 258.229 992.764 257.798C993.217 257.367 993.739 257.152 994.328 257.152C994.94 257.152 995.461 257.367 995.892 257.798C996.323 258.229 996.538 258.75 996.538 259.362C996.538 259.974 996.323 260.495 995.892 260.926C995.461 261.357 994.94 261.572 994.328 261.572ZM996.13 280H992.56V263.578H996.13V280ZM1001.1 280.68H998.449L1006.51 256.642H1009.16L1001.1 280.68ZM1018.97 280.408C1016.47 280.408 1014.43 279.603 1012.85 277.994C1011.26 276.362 1010.47 274.288 1010.47 271.772C1010.47 269.279 1011.26 267.227 1012.85 265.618C1014.43 263.986 1016.47 263.17 1018.97 263.17C1021.71 263.17 1023.81 264.145 1025.26 266.094L1022.91 268.27C1022 266.978 1020.75 266.332 1019.14 266.332C1017.64 266.332 1016.44 266.842 1015.53 267.862C1014.63 268.859 1014.17 270.163 1014.17 271.772C1014.17 273.381 1014.63 274.696 1015.53 275.716C1016.44 276.736 1017.64 277.246 1019.14 277.246C1020.7 277.246 1021.96 276.6 1022.91 275.308L1025.26 277.484C1023.81 279.433 1021.71 280.408 1018.97 280.408ZM1043.52 280H1039.95V277.756C1038.59 279.524 1036.83 280.408 1034.68 280.408C1032.52 280.408 1030.77 279.637 1029.41 278.096C1028.05 276.555 1027.37 274.458 1027.37 271.806C1027.37 269.177 1028.05 267.08 1029.41 265.516C1030.77 263.952 1032.52 263.17 1034.68 263.17C1036.83 263.17 1038.59 264.065 1039.95 265.856V257.322H1043.52V280ZM1035.7 277.246C1036.53 277.246 1037.35 277.042 1038.14 276.634C1038.94 276.226 1039.54 275.705 1039.95 275.07V268.542C1039.54 267.907 1038.94 267.386 1038.14 266.978C1037.35 266.547 1036.53 266.332 1035.7 266.332C1034.29 266.332 1033.17 266.842 1032.33 267.862C1031.49 268.882 1031.07 270.197 1031.07 271.806C1031.07 273.415 1031.49 274.73 1032.33 275.75C1033.17 276.747 1034.29 277.246 1035.7 277.246Z" fill="black"/>
<path d="M1558.29 693.442C1554.94 693.442 1552.12 692.354 1549.83 690.178C1547.54 688.002 1546.39 685.169 1546.39 681.678C1546.39 678.187 1547.54 675.365 1549.83 673.212C1552.12 671.036 1554.94 669.948 1558.29 669.948C1562.19 669.948 1565.24 671.523 1567.44 674.674L1564.18 676.51C1563.54 675.626 1562.7 674.901 1561.66 674.334C1560.64 673.767 1559.52 673.484 1558.29 673.484C1556.05 673.484 1554.18 674.255 1552.68 675.796C1551.21 677.337 1550.47 679.298 1550.47 681.678C1550.47 684.058 1551.21 686.03 1552.68 687.594C1554.18 689.135 1556.05 689.906 1558.29 689.906C1559.36 689.906 1560.37 689.702 1561.32 689.294C1562.29 688.886 1563.08 688.41 1563.67 687.866V684.33H1556.9V680.828H1567.64V689.328C1565.17 692.071 1562.06 693.442 1558.29 693.442ZM1573.45 674.572C1572.86 674.572 1572.34 674.357 1571.89 673.926C1571.46 673.495 1571.24 672.974 1571.24 672.362C1571.24 671.75 1571.46 671.229 1571.89 670.798C1572.34 670.367 1572.86 670.152 1573.45 670.152C1574.06 670.152 1574.58 670.367 1575.02 670.798C1575.45 671.229 1575.66 671.75 1575.66 672.362C1575.66 672.974 1575.45 673.495 1575.02 673.926C1574.58 674.357 1574.06 674.572 1573.45 674.572ZM1575.25 693H1571.68V676.578H1575.25V693ZM1584.81 693.408C1583.43 693.408 1582.38 693.045 1581.65 692.32C1580.95 691.595 1580.6 690.552 1580.6 689.192V679.706H1577.88V676.578H1580.6V672.09H1584.17V676.578H1587.5V679.706H1584.17V688.308C1584.17 688.897 1584.3 689.373 1584.58 689.736C1584.85 690.076 1585.23 690.246 1585.73 690.246C1586.46 690.246 1586.99 690.053 1587.33 689.668L1588.18 692.354C1587.43 693.057 1586.31 693.408 1584.81 693.408ZM1594.31 693H1590.74V670.322H1594.31V693ZM1612.54 693H1608.97V691.232C1607.7 692.683 1605.94 693.408 1603.67 693.408C1602.17 693.408 1600.85 692.932 1599.69 691.98C1598.53 691.005 1597.96 689.668 1597.96 687.968C1597.96 686.223 1598.52 684.897 1599.66 683.99C1600.81 683.083 1602.15 682.63 1603.67 682.63C1606 682.63 1607.77 683.333 1608.97 684.738V682.29C1608.97 681.338 1608.62 680.59 1607.92 680.046C1607.22 679.502 1606.29 679.23 1605.13 679.23C1603.29 679.23 1601.67 679.921 1600.27 681.304L1598.81 678.822C1600.67 677.054 1602.97 676.17 1605.71 676.17C1607.73 676.17 1609.37 676.646 1610.64 677.598C1611.91 678.55 1612.54 680.057 1612.54 682.12V693ZM1605.06 690.96C1606.85 690.96 1608.16 690.393 1608.97 689.26V686.778C1608.16 685.645 1606.85 685.078 1605.06 685.078C1604.04 685.078 1603.2 685.35 1602.55 685.894C1601.89 686.438 1601.56 687.152 1601.56 688.036C1601.56 688.92 1601.89 689.634 1602.55 690.178C1603.2 690.699 1604.04 690.96 1605.06 690.96ZM1620.74 688.07C1621.13 688.682 1621.72 689.203 1622.51 689.634C1623.33 690.042 1624.14 690.246 1624.96 690.246C1626.36 690.246 1627.48 689.747 1628.32 688.75C1629.18 687.73 1629.62 686.415 1629.62 684.806C1629.62 683.197 1629.18 681.882 1628.32 680.862C1627.48 679.842 1626.36 679.332 1624.96 679.332C1624.14 679.332 1623.34 679.547 1622.54 679.978C1621.75 680.409 1621.15 680.941 1620.74 681.576V688.07ZM1620.74 693H1617.17V670.322H1620.74V678.856C1622.08 677.065 1623.84 676.17 1626.01 676.17C1628.14 676.17 1629.89 676.963 1631.25 678.55C1632.61 680.114 1633.29 682.199 1633.29 684.806C1633.29 687.458 1632.61 689.555 1631.25 691.096C1629.89 692.637 1628.14 693.408 1626.01 693.408C1623.86 693.408 1622.1 692.524 1620.74 690.756V693ZM1654.5 693.408C1652.32 693.408 1650.57 692.513 1649.23 690.722V699.256H1645.66V676.578H1649.23V678.822C1650.54 677.054 1652.3 676.17 1654.5 676.17C1656.65 676.17 1658.4 676.941 1659.74 678.482C1661.1 680.023 1661.78 682.12 1661.78 684.772C1661.78 687.424 1661.1 689.532 1659.74 691.096C1658.4 692.637 1656.65 693.408 1654.5 693.408ZM1653.45 690.246C1654.85 690.246 1655.97 689.736 1656.81 688.716C1657.65 687.696 1658.07 686.381 1658.07 684.772C1658.07 683.163 1657.65 681.859 1656.81 680.862C1655.97 679.842 1654.85 679.332 1653.45 679.332C1652.63 679.332 1651.82 679.547 1651.03 679.978C1650.24 680.409 1649.64 680.93 1649.23 681.542V688.036C1649.64 688.648 1650.24 689.169 1651.03 689.6C1651.82 690.031 1652.63 690.246 1653.45 690.246ZM1678.92 693H1675.35V691.232C1674.08 692.683 1672.31 693.408 1670.04 693.408C1668.55 693.408 1667.22 692.932 1666.06 691.98C1664.91 691.005 1664.33 689.668 1664.33 687.968C1664.33 686.223 1664.9 684.897 1666.03 683.99C1667.19 683.083 1668.52 682.63 1670.04 682.63C1672.38 682.63 1674.14 683.333 1675.35 684.738V682.29C1675.35 681.338 1674.99 680.59 1674.29 680.046C1673.59 679.502 1672.66 679.23 1671.5 679.23C1669.67 679.23 1668.05 679.921 1666.64 681.304L1665.18 678.822C1667.04 677.054 1669.34 676.17 1672.08 676.17C1674.1 676.17 1675.74 676.646 1677.01 677.598C1678.28 678.55 1678.92 680.057 1678.92 682.12V693ZM1671.44 690.96C1673.23 690.96 1674.53 690.393 1675.35 689.26V686.778C1674.53 685.645 1673.23 685.078 1671.44 685.078C1670.42 685.078 1669.58 685.35 1668.92 685.894C1668.26 686.438 1667.93 687.152 1667.93 688.036C1667.93 688.92 1668.26 689.634 1668.92 690.178C1669.58 690.699 1670.42 690.96 1671.44 690.96ZM1690.21 699.664C1687.42 699.664 1685.13 698.848 1683.34 697.216L1685.01 694.632C1686.23 696.037 1687.96 696.74 1690.21 696.74C1691.57 696.74 1692.71 696.377 1693.64 695.652C1694.59 694.949 1695.07 693.827 1695.07 692.286V690.314C1693.67 692.127 1691.91 693.034 1689.8 693.034C1687.65 693.034 1685.89 692.286 1684.53 690.79C1683.19 689.294 1682.52 687.231 1682.52 684.602C1682.52 681.995 1683.19 679.944 1684.53 678.448C1685.89 676.929 1687.65 676.17 1689.8 676.17C1691.95 676.17 1693.71 677.065 1695.07 678.856V676.578H1698.64V692.15C1698.64 693.555 1698.39 694.768 1697.89 695.788C1697.42 696.831 1696.76 697.613 1695.92 698.134C1695.08 698.678 1694.19 699.063 1693.23 699.29C1692.31 699.539 1691.3 699.664 1690.21 699.664ZM1690.85 689.872C1691.67 689.872 1692.48 689.657 1693.27 689.226C1694.06 688.795 1694.66 688.274 1695.07 687.662V681.542C1694.66 680.93 1694.06 680.409 1693.27 679.978C1692.48 679.547 1691.67 679.332 1690.85 679.332C1689.45 679.332 1688.33 679.819 1687.49 680.794C1686.65 681.746 1686.23 683.015 1686.23 684.602C1686.23 686.189 1686.65 687.469 1687.49 688.444C1688.33 689.396 1689.45 689.872 1690.85 689.872ZM1710.85 693.408C1708.36 693.408 1706.29 692.615 1704.66 691.028C1703.05 689.419 1702.25 687.333 1702.25 684.772C1702.25 682.369 1703.03 680.341 1704.59 678.686C1706.18 677.009 1708.17 676.17 1710.58 676.17C1713 676.17 1714.95 677.009 1716.43 678.686C1717.92 680.363 1718.67 682.505 1718.67 685.112V685.962H1705.99C1706.12 687.254 1706.66 688.331 1707.59 689.192C1708.51 690.053 1709.73 690.484 1711.22 690.484C1712.06 690.484 1712.9 690.325 1713.74 690.008C1714.6 689.691 1715.31 689.249 1715.88 688.682L1717.51 691.028C1715.86 692.615 1713.64 693.408 1710.85 693.408ZM1715.2 683.446C1715.16 682.313 1714.74 681.304 1713.94 680.42C1713.17 679.536 1712.05 679.094 1710.58 679.094C1709.17 679.094 1708.07 679.536 1707.28 680.42C1706.49 681.281 1706.04 682.29 1705.95 683.446H1715.2ZM1727.8 693.408C1724.86 693.408 1722.51 692.558 1720.76 690.858L1722.4 688.274C1723.01 688.909 1723.84 689.453 1724.88 689.906C1725.92 690.359 1726.95 690.586 1727.97 690.586C1729.02 690.586 1729.81 690.382 1730.35 689.974C1730.92 689.566 1731.2 689.033 1731.2 688.376C1731.2 687.787 1730.86 687.333 1730.18 687.016C1729.5 686.676 1728.68 686.415 1727.7 686.234C1726.73 686.03 1725.75 685.792 1724.78 685.52C1723.8 685.225 1722.97 684.715 1722.29 683.99C1721.61 683.265 1721.27 682.324 1721.27 681.168C1721.27 679.763 1721.85 678.584 1723.01 677.632C1724.16 676.657 1725.74 676.17 1727.73 676.17C1730.25 676.17 1732.38 676.941 1734.13 678.482L1732.63 680.998C1732.11 680.409 1731.42 679.933 1730.56 679.57C1729.7 679.207 1728.77 679.026 1727.77 679.026C1726.84 679.026 1726.09 679.219 1725.52 679.604C1724.98 679.967 1724.71 680.443 1724.71 681.032C1724.71 681.485 1724.95 681.859 1725.42 682.154C1725.92 682.426 1726.53 682.63 1727.26 682.766C1728.01 682.902 1728.81 683.095 1729.67 683.344C1730.53 683.571 1731.33 683.843 1732.05 684.16C1732.8 684.477 1733.41 684.999 1733.89 685.724C1734.39 686.427 1734.64 687.288 1734.64 688.308C1734.64 689.804 1734.04 691.028 1732.83 691.98C1731.63 692.932 1729.96 693.408 1727.8 693.408Z" fill="black"/>
<rect x="1440.5" y="381.5" width="399" height="239" rx="7.5" fill="#D4F5CC"/>
<path d="M1527.18 487.528C1523.96 487.528 1521.32 486.487 1519.26 484.404C1517.21 482.292 1516.18 479.608 1516.18 476.352C1516.18 473.125 1517.21 470.471 1519.26 468.388C1521.32 466.276 1523.96 465.22 1527.18 465.22C1530.73 465.22 1533.44 466.481 1535.32 469.004L1532.29 471.82C1531.11 470.148 1529.48 469.312 1527.4 469.312C1525.47 469.312 1523.91 469.972 1522.74 471.292C1521.56 472.583 1520.98 474.269 1520.98 476.352C1520.98 478.435 1521.56 480.136 1522.74 481.456C1523.91 482.776 1525.47 483.436 1527.4 483.436C1529.43 483.436 1531.05 482.6 1532.29 480.928L1535.32 483.744C1533.44 486.267 1530.73 487.528 1527.18 487.528ZM1547.86 487H1543.24V469.796H1537.17V465.748H1553.98V469.796H1547.86V487ZM1575.36 487H1570.74V484.712C1569.1 486.589 1566.81 487.528 1563.88 487.528C1561.94 487.528 1560.23 486.912 1558.73 485.68C1557.24 484.419 1556.49 482.688 1556.49 480.488C1556.49 478.229 1557.22 476.513 1558.69 475.34C1560.18 474.167 1561.91 473.58 1563.88 473.58C1566.9 473.58 1569.19 474.489 1570.74 476.308V473.14C1570.74 471.908 1570.29 470.94 1569.38 470.236C1568.47 469.532 1567.27 469.18 1565.77 469.18C1563.4 469.18 1561.3 470.075 1559.48 471.864L1557.59 468.652C1559.99 466.364 1562.97 465.22 1566.52 465.22C1569.13 465.22 1571.26 465.836 1572.9 467.068C1574.54 468.3 1575.36 470.251 1575.36 472.92V487ZM1565.68 484.36C1568 484.36 1569.69 483.627 1570.74 482.16V478.948C1569.69 477.481 1568 476.748 1565.68 476.748C1564.36 476.748 1563.28 477.1 1562.43 477.804C1561.58 478.508 1561.15 479.432 1561.15 480.576C1561.15 481.72 1561.58 482.644 1562.43 483.348C1563.28 484.023 1564.36 484.36 1565.68 484.36ZM1589.85 487H1585.23V469.796H1579.15V465.748H1595.96V469.796H1589.85V487ZM1604.19 487H1599.74V465.748H1604.36V480.048L1614.13 465.748H1618.75V487H1614.13V472.304L1604.19 487ZM1624 465.748H1628.62V471.468C1628.62 473.052 1629.02 474.167 1629.81 474.812C1630.63 475.457 1631.92 475.78 1633.68 475.78C1635.59 475.78 1637.15 475.516 1638.35 474.988V465.748H1642.97V487H1638.35V478.728C1636.82 479.491 1634.78 479.872 1632.23 479.872C1629.33 479.872 1627.23 479.315 1625.94 478.2C1624.65 477.085 1624 475.399 1624 473.14V465.748ZM1658.76 487.528C1655.53 487.528 1652.86 486.501 1650.75 484.448C1648.66 482.365 1647.62 479.667 1647.62 476.352C1647.62 473.243 1648.64 470.617 1650.66 468.476C1652.71 466.305 1655.29 465.22 1658.4 465.22C1661.54 465.22 1664.06 466.305 1665.97 468.476C1667.91 470.647 1668.88 473.419 1668.88 476.792V477.892H1652.46C1652.64 479.564 1653.33 480.957 1654.53 482.072C1655.73 483.187 1657.3 483.744 1659.24 483.744C1660.32 483.744 1661.41 483.539 1662.5 483.128C1663.61 482.717 1664.53 482.145 1665.27 481.412L1667.38 484.448C1665.24 486.501 1662.36 487.528 1658.76 487.528ZM1664.39 474.636C1664.33 473.169 1663.79 471.864 1662.76 470.72C1661.76 469.576 1660.31 469.004 1658.4 469.004C1656.58 469.004 1655.16 469.576 1654.14 470.72C1653.11 471.835 1652.54 473.14 1652.42 474.636H1664.39ZM1683.12 487.528C1679.89 487.528 1677.25 486.487 1675.2 484.404C1673.14 482.292 1672.12 479.608 1672.12 476.352C1672.12 473.125 1673.14 470.471 1675.2 468.388C1677.25 466.276 1679.89 465.22 1683.12 465.22C1686.66 465.22 1689.38 466.481 1691.26 469.004L1688.22 471.82C1687.05 470.148 1685.42 469.312 1683.34 469.312C1681.4 469.312 1679.84 469.972 1678.67 471.292C1677.5 472.583 1676.91 474.269 1676.91 476.352C1676.91 478.435 1677.5 480.136 1678.67 481.456C1679.84 482.776 1681.4 483.436 1683.34 483.436C1685.36 483.436 1686.99 482.6 1688.22 480.928L1691.26 483.744C1689.38 486.267 1686.66 487.528 1683.12 487.528ZM1715.19 487H1709.39L1702.87 478.244L1699.93 481.28V487H1695.31V465.748H1699.93V476L1709.3 465.748H1715.02L1706.17 475.384L1715.19 487ZM1722.91 487H1718.47V465.748H1723.09V480.048L1732.85 465.748H1737.47V487H1732.85V472.304L1722.91 487ZM1747.92 487H1743.47V465.748H1748.09V480.048L1757.86 465.748H1762.48V487H1757.86V472.304L1747.92 487ZM1760.68 459.632C1758.77 462.213 1756.21 463.504 1752.98 463.504C1749.78 463.504 1747.2 462.213 1745.23 459.632L1747.35 457.872C1748.75 459.808 1750.63 460.776 1752.98 460.776C1755.33 460.776 1757.19 459.808 1758.57 457.872L1760.68 459.632ZM1583.77 542H1578.57L1573.07 534.168L1567.53 542H1562.38L1570.17 531.088L1562.82 520.748H1568.01L1573.07 527.964L1578.09 520.748H1583.28L1575.93 531.088L1583.77 542ZM1595.03 542.528C1591.74 542.528 1589.1 541.457 1587.11 539.316C1585.11 537.145 1584.12 534.491 1584.12 531.352C1584.12 528.213 1585.11 525.573 1587.11 523.432C1589.1 521.291 1591.74 520.22 1595.03 520.22C1598.34 520.22 1601 521.291 1602.99 523.432C1604.99 525.573 1605.98 528.213 1605.98 531.352C1605.98 534.52 1604.99 537.175 1602.99 539.316C1601 541.457 1598.34 542.528 1595.03 542.528ZM1595.03 538.436C1596.93 538.436 1598.43 537.761 1599.52 536.412C1600.63 535.033 1601.19 533.347 1601.19 531.352C1601.19 529.387 1600.63 527.729 1599.52 526.38C1598.43 525.001 1596.93 524.312 1595.03 524.312C1593.15 524.312 1591.65 525.001 1590.54 526.38C1589.45 527.729 1588.91 529.387 1588.91 531.352C1588.91 533.347 1589.45 535.033 1590.54 536.412C1591.65 537.761 1593.15 538.436 1595.03 538.436ZM1620.34 542.528C1617.11 542.528 1614.47 541.487 1612.42 539.404C1610.36 537.292 1609.34 534.608 1609.34 531.352C1609.34 528.125 1610.36 525.471 1612.42 523.388C1614.47 521.276 1617.11 520.22 1620.34 520.22C1623.89 520.22 1626.6 521.481 1628.48 524.004L1625.44 526.82C1624.27 525.148 1622.64 524.312 1620.56 524.312C1618.62 524.312 1617.07 524.972 1615.89 526.292C1614.72 527.583 1614.13 529.269 1614.13 531.352C1614.13 533.435 1614.72 535.136 1615.89 536.456C1617.07 537.776 1618.62 538.436 1620.56 538.436C1622.58 538.436 1624.21 537.6 1625.44 535.928L1628.48 538.744C1626.6 541.267 1623.89 542.528 1620.34 542.528ZM1641.02 542H1636.4V524.796H1630.33V520.748H1647.14V524.796H1641.02V542ZM1655.36 542H1650.92V520.748H1655.54V535.048L1665.31 520.748H1669.93V542H1665.31V527.304L1655.36 542ZM1680.55 542H1675.93V520.748H1680.55V529.108H1690.32V520.748H1694.94V542H1690.32V533.156H1680.55V542ZM1717.04 520.748V524.796H1705.56V542H1700.94V520.748H1717.04Z" fill="black"/>
<rect x="1440.5" y="381.5" width="399" height="239" rx="7.5" stroke="#2CE100"/>
<path d="M550.414 502.414C551.195 501.633 551.195 500.367 550.414 499.586L537.686 486.858C536.905 486.077 535.639 486.077 534.858 486.858C534.077 487.639 534.077 488.905 534.858 489.686L546.172 501L534.858 512.314C534.077 513.095 534.077 514.361 534.858 515.142C535.639 515.923 536.905 515.923 537.686 515.142L550.414 502.414ZM459 503H549V499H459V503Z" fill="black"/>
<path d="M1463.41 502.414C1464.2 501.633 1464.2 500.367 1463.41 499.586L1450.69 486.858C1449.91 486.077 1448.64 486.077 1447.86 486.858C1447.08 487.639 1447.08 488.905 1447.86 489.686L1459.17 501L1447.86 512.314C1447.08 513.095 1447.08 514.361 1447.86 515.142C1448.64 515.923 1449.91 515.923 1450.69 515.142L1463.41 502.414ZM1372 503H1462V499H1372V503Z" fill="black"/>
<defs>
<pattern id="pattern0" patternContentUnits="objectBoundingBox" width="1" height="1">
<use xlink:href="#image0_7_2677" transform="matrix(0.00100806 0 0 0.00202975 0 -0.000333751)"/>
</pattern>

</defs>
</svg>
